<svg xmlns="http://www.w3.org/2000/svg" xmlns:xlink="http://www.w3.org/1999/xlink" width="500" zoomAndPan="magnify" viewBox="0 0 375 374.999991" height="500" preserveAspectRatio="xMidYMid meet" version="1.0"><defs><g/><clipPath id="fbd46cb085"><path d="M 107.238281 104.460938 L 267.738281 104.460938 L 267.738281 235.710938 L 107.238281 235.710938 Z M 107.238281 104.460938 " clip-rule="nonzero"/></clipPath></defs><g clip-path="url(#fbd46cb085)"><path fill="#100f0d" d="M 112.453125 107.996094 L 262.464844 107.996094 C 263.246094 107.984375 263.882812 108.609375 263.898438 109.390625 C 263.898438 109.390625 263.898438 109.402344 263.898438 109.417969 L 263.898438 203.605469 C 263.898438 204.386719 263.273438 205.027344 262.492188 205.027344 C 262.480469 205.027344 262.480469 205.027344 262.464844 205.027344 L 112.453125 205.027344 C 111.6875 205.039062 111.035156 204.414062 111.019531 203.632812 C 111.019531 203.632812 111.019531 203.621094 111.019531 203.605469 L 111.019531 109.417969 C 111.019531 108.636719 111.660156 107.996094 112.425781 107.996094 C 112.441406 107.996094 112.453125 107.996094 112.453125 107.996094 Z M 110.992188 104.476562 C 109.0625 104.503906 107.527344 106.078125 107.527344 107.996094 L 107.527344 212.355469 C 107.527344 214.285156 109.0625 215.847656 110.992188 215.890625 L 175.703125 215.890625 L 175.703125 227.039062 C 175.703125 227.820312 175.078125 228.460938 174.296875 228.460938 C 174.285156 228.460938 174.269531 228.460938 174.253906 228.460938 L 166.476562 228.460938 C 163.082031 228.488281 160.15625 230.816406 159.347656 234.113281 C 159.164062 234.863281 159.632812 235.632812 160.386719 235.816406 C 160.5 235.84375 160.613281 235.859375 160.726562 235.859375 L 214.292969 235.859375 C 215.074219 235.859375 215.699219 235.21875 215.699219 234.4375 C 215.699219 234.324219 215.683594 234.210938 215.667969 234.113281 C 214.859375 230.789062 211.863281 228.445312 208.441406 228.460938 L 200.664062 228.460938 C 199.894531 228.429688 199.285156 227.804688 199.285156 227.039062 L 199.285156 215.890625 L 263.914062 215.890625 C 265.859375 215.90625 267.449219 214.328125 267.476562 212.382812 C 267.476562 212.382812 267.476562 212.367188 267.476562 212.355469 L 267.476562 107.996094 C 267.460938 106.050781 265.886719 104.476562 263.941406 104.476562 C 263.925781 104.476562 263.925781 104.476562 263.914062 104.476562 L 110.992188 104.476562 " fill-opacity="1" fill-rule="nonzero"/></g><g fill="#000000" fill-opacity="1"><g transform="translate(242.563232, 200.544218)"><g><path d="M 13.644531 -9.535156 C 13.1875 -8.722656 12.933594 -7.609375 12.476562 -6.746094 C 11.96875 -5.730469 10.246094 -3.855469 9.484375 -3.09375 C 9.179688 -2.839844 7.660156 -1.625 7.355469 -1.421875 C 6.898438 -1.117188 5.984375 -1.167969 5.527344 -1.167969 C 5.425781 -1.167969 5.375 -1.21875 5.324219 -1.21875 C 5.171875 -1.421875 4.972656 -1.574219 4.871094 -1.824219 C 4.617188 -2.585938 4.414062 -3.347656 4.363281 -4.160156 C 4.261719 -6.085938 4.921875 -9.941406 5.476562 -11.210938 C 5.730469 -11.566406 5.679688 -12.019531 5.882812 -12.375 C 6.136719 -12.78125 6.390625 -13.238281 6.542969 -13.695312 C 6.695312 -14.253906 6.898438 -14.710938 7.152344 -15.214844 L 7.40625 -15.773438 C 8.066406 -17.449219 8.875 -19.070312 9.484375 -20.796875 L 9.585938 -20.949219 C 9.6875 -21.152344 9.789062 -21.304688 9.992188 -21.355469 L 11.160156 -21.507812 C 11.363281 -21.558594 11.617188 -21.558594 11.816406 -21.65625 C 12.171875 -21.757812 12.527344 -21.808594 12.882812 -21.808594 C 13.492188 -21.757812 14.101562 -22.011719 14.660156 -22.0625 C 14.660156 -22.0625 14.710938 -22.0625 14.710938 -22.113281 L 15.824219 -22.621094 L 16.179688 -22.875 L 16.382812 -23.179688 C 16.027344 -23.230469 15.722656 -23.332031 15.417969 -23.332031 L 12.78125 -23.332031 L 10.90625 -23.179688 C 10.703125 -23.179688 10.550781 -23.179688 10.398438 -23.28125 C 10.449219 -23.433594 10.449219 -23.535156 10.449219 -23.6875 L 10.753906 -24.90625 L 10.90625 -25.714844 C 10.957031 -25.96875 10.957031 -26.222656 10.90625 -26.425781 C 10.855469 -26.679688 10.804688 -26.933594 10.804688 -27.238281 C 10.804688 -27.847656 10.703125 -28.351562 10.449219 -28.859375 C 10.246094 -29.417969 9.992188 -29.722656 9.28125 -29.570312 C 9.230469 -29.519531 9.230469 -29.519531 9.179688 -29.519531 C 8.824219 -29.519531 8.519531 -29.367188 8.21875 -29.46875 C 7.964844 -29.519531 7.761719 -29.417969 7.558594 -29.265625 L 7.203125 -28.859375 C 6.542969 -28.253906 6.035156 -27.542969 5.527344 -26.730469 C 4.972656 -25.816406 4.617188 -24.804688 4.109375 -23.839844 C 4.007812 -23.382812 3.753906 -23.027344 3.601562 -22.621094 C 3.5 -22.367188 3.296875 -22.265625 3.09375 -22.214844 C 2.585938 -22.164062 2.078125 -22.113281 1.625 -22.011719 L -0.457031 -21.558594 C -0.507812 -21.558594 -0.609375 -21.507812 -0.710938 -21.457031 C -0.660156 -21.203125 -0.507812 -21.101562 -0.40625 -21 L 0.507812 -20.441406 C 0.8125 -20.1875 1.117188 -20.238281 1.472656 -20.1875 C 2.6875 -19.933594 1.371094 -18.007812 1.117188 -16.890625 L 0.660156 -15.265625 C 0.558594 -14.964844 0.40625 -14.609375 0.355469 -14.253906 L 0.101562 -13.238281 C -1.117188 -9.128906 -1.625 -8.519531 -1.625 -4.261719 C -1.574219 -3.5 -1.421875 -2.433594 -1.21875 -1.773438 C -1.066406 -1.269531 -0.761719 -0.863281 -0.507812 -0.40625 C 0 0.609375 1.574219 2.179688 2.636719 2.332031 C 3.246094 2.484375 3.957031 2.433594 4.617188 2.382812 C 4.972656 2.332031 6.492188 1.773438 6.898438 1.523438 C 7.507812 1.117188 8.621094 -0.203125 9.28125 -0.660156 C 9.535156 -0.863281 11.917969 -3.90625 12.121094 -4.261719 L 13.492188 -6.847656 L 14.457031 -9.28125 C 14.558594 -9.484375 15.113281 -10.957031 15.0625 -11.160156 C 15.011719 -11.414062 15.164062 -11.414062 15.164062 -11.714844 C 15.214844 -11.867188 14.863281 -11.664062 14.609375 -11.714844 Z M 8.570312 -23.484375 C 8.269531 -22.570312 6.847656 -22.621094 7.050781 -23.941406 C 7.203125 -24.5 7.304688 -25.054688 7.40625 -25.5625 L 7.710938 -26.222656 L 7.914062 -26.679688 C 8.015625 -27.136719 8.21875 -27.59375 8.417969 -28 C 8.519531 -28.253906 8.671875 -28.351562 8.875 -28.503906 C 8.976562 -28.605469 9.128906 -28.554688 9.179688 -28.351562 C 9.230469 -27.898438 9.28125 -27.441406 9.230469 -26.984375 L 9.027344 -25.765625 L 8.875 -25.054688 Z M 6.289062 -16.839844 C 5.578125 -14.964844 3.957031 -11.816406 5.070312 -16.027344 C 5.527344 -17.601562 5.730469 -18.765625 6.289062 -20.441406 C 7.964844 -21.507812 7.8125 -20.492188 7.304688 -19.222656 C 6.847656 -18.3125 6.644531 -17.804688 6.289062 -16.839844 Z M 6.289062 -16.839844 "/></g></g></g><g fill="#000000" fill-opacity="1"><g transform="translate(110.372794, 281.723485)"><g><path d="M 1.558594 -30.761719 C 2.152344 -30.546875 2.582031 -30.332031 2.6875 -29.792969 C 2.796875 -29.527344 3.121094 -29.363281 3.386719 -29.257812 C 3.765625 -29.148438 4.25 -29.148438 4.679688 -29.09375 C 5.269531 -29.042969 5.914062 -28.988281 6.453125 -28.71875 C 6.613281 -28.613281 6.882812 -28.613281 7.097656 -28.558594 C 11.9375 -28.613281 6.453125 -19.039062 5.808594 -17.15625 C 4.625 -13.875 3.710938 -10.542969 3.011719 -7.261719 C 2.742188 -5.699219 2.527344 -4.195312 2.367188 -2.636719 C 2.257812 -1.289062 2.636719 -0.0546875 3.011719 1.128906 C 3.121094 1.398438 3.335938 1.667969 3.550781 1.882812 C 3.871094 2.203125 4.464844 2.042969 4.894531 1.613281 L 5.648438 1.128906 C 6.292969 0.808594 6.832031 0.375 7.261719 -0.269531 C 7.476562 -0.589844 7.746094 -0.914062 8.011719 -1.183594 C 8.445312 -1.667969 8.710938 -2.152344 8.820312 -2.6875 C 8.980469 -3.386719 9.25 -4.085938 9.519531 -4.785156 C 9.679688 -5.164062 9.84375 -5.59375 9.84375 -5.96875 C 9.84375 -6.5625 9.949219 -7.152344 10.109375 -7.796875 L 10.542969 -9.089844 L 11.347656 -11.617188 C 11.402344 -11.832031 11.507812 -12.046875 11.5625 -12.316406 C 11.777344 -13.175781 11.9375 -14.089844 12.316406 -15.003906 C 13.121094 -16.671875 13.769531 -18.339844 14.414062 -20.007812 C 14.574219 -20.492188 14.84375 -20.921875 15.058594 -21.351562 C 17.046875 -23.503906 16.832031 -29.363281 20.328125 -29.527344 C 21.136719 -29.6875 21.890625 -29.6875 22.695312 -30.011719 C 23.394531 -30.332031 24.09375 -30.601562 24.738281 -30.925781 L 26.40625 -31.890625 C 26.78125 -32.054688 27 -32.375 27.105469 -32.699219 C 27.375 -33.828125 27.480469 -34.902344 27.214844 -35.925781 C 27.160156 -36.085938 27.105469 -36.25 27 -36.410156 C 26.40625 -36.035156 25.921875 -35.980469 25.382812 -35.925781 C 23.070312 -35.710938 20.757812 -35.496094 18.445312 -35.226562 L 13.390625 -34.527344 C 12.207031 -34.367188 10.972656 -34.152344 9.789062 -33.773438 C 8.710938 -33.453125 7.691406 -33.128906 6.667969 -32.914062 C 5.59375 -32.644531 4.570312 -32.324219 3.496094 -31.890625 C 2.851562 -31.625 2.257812 -31.300781 1.558594 -30.761719 Z M 1.558594 -30.761719 "/></g></g></g><g fill="#000000" fill-opacity="1"><g transform="translate(129.518865, 281.723485)"><g><path d="M 7.367188 -17.800781 C 5.433594 -19.199219 3.171875 -21.996094 7.046875 -22.964844 L 8.875 -23.339844 C 9.410156 -23.503906 10.003906 -23.554688 10.542969 -23.609375 C 12.421875 -23.664062 14.144531 -23.394531 15.867188 -23.179688 C 16.726562 -23.070312 17.585938 -22.910156 18.394531 -22.589844 C 18.609375 -22.425781 18.929688 -22.425781 19.253906 -22.589844 C 19.84375 -22.75 20.328125 -23.019531 20.921875 -23.289062 C 21.296875 -23.503906 21.566406 -23.769531 21.78125 -24.148438 C 21.996094 -24.523438 22.320312 -24.847656 22.535156 -25.277344 C 22.804688 -25.707031 23.070312 -26.246094 23.125 -26.621094 C 23.179688 -27.535156 23.503906 -28.449219 23.933594 -29.363281 C 24.039062 -29.632812 24.039062 -29.902344 24.09375 -30.171875 C 24.09375 -30.277344 24.09375 -30.441406 24.148438 -30.546875 C 24.308594 -30.976562 24.148438 -31.191406 23.878906 -31.40625 C 23.179688 -31.945312 22.265625 -32.160156 21.296875 -32.269531 L 18.609375 -32.644531 C 15.648438 -32.859375 12.585938 -32.753906 9.304688 -31.570312 C 8.710938 -31.300781 8.066406 -31.140625 7.421875 -30.871094 C 5.269531 -29.6875 3.171875 -28.394531 1.613281 -26.460938 C -0.109375 -24.363281 -1.238281 -21.566406 0 -19.523438 C 0.644531 -18.285156 1.507812 -17.101562 2.6875 -16.1875 C 3.710938 -15.328125 4.785156 -14.574219 5.96875 -13.875 C 7.90625 -12.746094 9.84375 -11.5625 11.507812 -10.21875 C 12.53125 -9.410156 13.015625 -8.335938 13.390625 -7.097656 C 13.554688 -6.777344 13.390625 -6.347656 12.90625 -5.96875 C 12.261719 -5.378906 11.507812 -4.949219 10.808594 -4.625 C 9.84375 -4.140625 8.820312 -3.765625 7.851562 -3.335938 C 6.882812 -2.902344 5.863281 -2.6875 4.894531 -2.527344 C 4.355469 -2.421875 3.820312 -2.472656 3.386719 -2.636719 C 3.011719 -2.742188 2.851562 -3.011719 2.902344 -3.386719 C 2.957031 -3.925781 2.957031 -4.355469 3.066406 -4.839844 C 3.171875 -5.648438 3.550781 -6.292969 4.085938 -6.992188 L 5.054688 -8.335938 C 5.214844 -8.550781 5.269531 -8.710938 5.214844 -8.875 C 5.164062 -9.144531 5.164062 -9.359375 5.164062 -9.625 C 5.054688 -9.625 4.894531 -9.679688 4.625 -9.734375 L 5.324219 -10.109375 C 4.894531 -10.273438 4.679688 -9.789062 4.355469 -9.679688 C 3.550781 -9.789062 3.335938 -9.625 2.902344 -8.820312 C 2.796875 -8.660156 2.6875 -8.445312 2.527344 -8.335938 C 1.667969 -7.582031 0.96875 -6.722656 0.375 -5.863281 C -0.324219 -4.949219 -0.808594 -4.035156 -1.183594 -3.121094 C -1.667969 -1.613281 -1.453125 -0.484375 -0.644531 0.375 C 0.269531 1.34375 1.667969 1.773438 3.121094 1.988281 C 4.085938 2.152344 5.054688 2.097656 6.183594 1.828125 C 6.667969 1.667969 7.046875 1.558594 7.476562 1.34375 C 7.960938 1.074219 8.390625 1.023438 8.875 1.023438 C 9.464844 1.074219 10.109375 1.023438 10.703125 0.699219 C 11.9375 0.214844 13.070312 -0.429688 14.089844 -1.398438 C 14.359375 -1.613281 14.628906 -1.9375 14.789062 -2.152344 C 15.21875 -2.636719 15.542969 -3.226562 15.8125 -3.765625 C 16.726562 -5.378906 16.941406 -6.9375 16.617188 -8.335938 C 16.082031 -10.378906 15.058594 -12.046875 13.605469 -13.335938 C 12.585938 -14.199219 11.617188 -15.058594 10.378906 -15.703125 C 10.21875 -15.757812 10.058594 -15.867188 9.894531 -15.972656 C 9.089844 -16.617188 8.226562 -17.265625 7.367188 -17.800781 Z M 7.367188 -17.800781 "/></g></g></g><g fill="#000000" fill-opacity="1"><g transform="translate(151.138868, 281.723485)"><g/></g><g transform="translate(164.584142, 281.723485)"><g><path d="M 5.96875 -27.644531 C 6.023438 -27.695312 4.679688 -26.945312 4.679688 -26.945312 C 4.785156 -26.890625 4.625 -25.761719 4.734375 -25.761719 C 7.3125 -25.007812 8.605469 -26.246094 7.636719 -22.640625 C 7.367188 -21.621094 7.476562 -21.890625 7.207031 -20.8125 C 7.046875 -20.277344 7.097656 -19.738281 6.992188 -19.199219 C 6.882812 -18.714844 6.9375 -18.285156 6.722656 -17.800781 C 6.347656 -17.046875 6.238281 -16.402344 6.023438 -15.648438 C 5.808594 -14.734375 5.59375 -13.769531 4.894531 -12.746094 C 4.734375 -12.585938 4.679688 -12.371094 4.570312 -12.261719 C 4.085938 -11.023438 3.820312 -10.003906 3.601562 -8.875 C 3.335938 -8.011719 3.066406 -7.097656 2.742188 -6.183594 L 2.421875 -5.753906 C 2.097656 -5.539062 1.828125 -5.378906 1.507812 -5.269531 C 0.808594 -5.054688 0.160156 -4.894531 -0.539062 -4.625 C -1.238281 -4.355469 -1.988281 -4.035156 -2.6875 -3.65625 C -2.851562 -3.601562 -3.066406 -3.386719 -3.171875 -3.171875 L -4.085938 -1.828125 C -4.625 -0.859375 -4.625 -0.429688 -3.871094 -0.109375 C -3.601562 0.0546875 -3.386719 0.160156 -3.011719 0.160156 C -1.828125 0.0546875 -0.699219 0.0546875 0.375 -0.109375 C 1.722656 -0.269531 3.171875 -0.539062 4.570312 -0.753906 L 8.011719 -1.238281 C 8.710938 -1.34375 9.195312 -1.289062 9.464844 -0.96875 C 9.625 -0.699219 10.003906 -0.859375 10.433594 -1.023438 C 10.757812 -1.183594 10.917969 -1.34375 10.808594 -1.613281 C 10.703125 -1.988281 10.863281 -2.421875 11.292969 -2.957031 C 11.402344 -3.121094 11.457031 -3.441406 11.5625 -3.65625 C 11.722656 -4.195312 12.046875 -4.839844 11.886719 -5.324219 C 11.832031 -5.433594 11.9375 -5.699219 12.046875 -5.914062 C 11.507812 -5.808594 11.671875 -6.238281 11.671875 -6.613281 C 11.132812 -6.667969 10.433594 -6.777344 9.734375 -6.722656 C 6.722656 -6.132812 8.660156 -9.789062 9.304688 -11.5625 L 10.488281 -15.167969 C 10.703125 -15.867188 10.757812 -16.511719 10.917969 -17.15625 L 12.421875 -23.125 C 12.746094 -24.308594 12.855469 -24.363281 13.121094 -25.492188 C 13.820312 -27.214844 16.457031 -26.945312 18.070312 -27.535156 C 18.179688 -27.914062 18.445312 -28.988281 18.179688 -29.09375 C 17.910156 -29.257812 17.910156 -29.632812 17.960938 -29.957031 C 18.179688 -31.085938 17.640625 -31.730469 16.671875 -31.945312 C 15.917969 -32.214844 14.898438 -32.160156 13.875 -31.890625 C 12.207031 -31.460938 10.648438 -31.085938 9.035156 -30.546875 C 8.226562 -30.332031 7.367188 -30.332031 6.453125 -29.578125 C 6.398438 -29.203125 6.183594 -28.828125 5.699219 -28.503906 C 5.59375 -28.394531 5.539062 -28.234375 5.378906 -28.128906 C 5.164062 -27.75 6.292969 -28.074219 5.96875 -27.644531 Z M -1.558594 -0.539062 C -1.289062 -0.914062 -0.96875 -0.96875 -0.699219 -1.023438 C 0.375 -1.128906 1.667969 -1.34375 2.902344 -1.453125 C 3.386719 -1.558594 3.820312 -1.613281 4.355469 -1.882812 C 4.519531 -1.988281 4.625 -1.988281 4.785156 -2.042969 C 5.484375 -2.152344 6.132812 -2.203125 6.777344 -2.367188 C 7.097656 -2.421875 7.367188 -2.527344 7.582031 -2.203125 L 6.132812 -2.042969 C 6.347656 -1.9375 6.667969 -2.042969 6.9375 -2.042969 C 7.261719 -2.097656 7.582031 -2.152344 7.851562 -2.097656 C 8.121094 -2.097656 8.390625 -2.042969 8.765625 -2.042969 C 8.175781 -1.613281 7.960938 -1.722656 7.476562 -1.558594 C 7.046875 -1.507812 6.667969 -1.558594 6.238281 -1.398438 C 5.699219 -1.128906 5.164062 -1.074219 4.679688 -0.914062 C 4.140625 -0.808594 3.550781 -0.753906 3.011719 -0.699219 L 0.160156 -0.375 C -0.375 -0.375 -0.859375 -0.429688 -1.398438 -0.429688 Z M 13.769531 -27.589844 C 13.390625 -27.535156 13.335938 -27.695312 13.5 -27.964844 C 14.304688 -28.503906 14.628906 -28.128906 15.273438 -28.019531 Z M 7.097656 -26.730469 C 7.152344 -26.78125 7.152344 -26.78125 7.152344 -26.835938 C 7.261719 -26.890625 7.367188 -26.890625 7.476562 -26.890625 C 7.582031 -26.945312 7.636719 -26.945312 7.746094 -26.945312 L 7.746094 -26.835938 Z M 7.097656 -26.730469 "/></g></g></g><g fill="#000000" fill-opacity="1"><g transform="translate(183.246187, 281.723485)"><g><path d="M 1.289062 -17.425781 C 1.238281 -17.265625 1.289062 -17.101562 1.238281 -16.996094 C 1.773438 -18.015625 2.097656 -19.144531 2.902344 -20.222656 C 2.851562 -19.84375 2.742188 -19.46875 2.636719 -19.09375 L 0.484375 -13.605469 C -0.96875 -9.789062 -1.988281 -6.078125 -2.152344 -2.472656 C -2.203125 -1.128906 -2.203125 0.269531 -2.527344 1.722656 C -2.636719 2.097656 -2.152344 2.742188 -1.882812 2.796875 C -1.238281 2.902344 -0.484375 2.851562 0.324219 2.742188 C 1.023438 2.582031 1.722656 2.257812 2.421875 1.828125 C 2.796875 1.558594 3.121094 1.183594 3.601562 1.128906 C 3.710938 1.128906 3.871094 0.96875 3.980469 0.808594 C 4.625 0.214844 4.839844 -0.429688 5 -1.128906 C 5.214844 -1.988281 5.484375 -2.902344 5.96875 -3.820312 C 6.398438 -4.679688 6.722656 -5.539062 7.097656 -6.398438 C 7.421875 -7.152344 7.796875 -7.90625 8.390625 -8.550781 C 9.304688 -9.574219 10.003906 -10.648438 10.542969 -11.777344 C 10.972656 -12.585938 11.457031 -13.335938 12.101562 -14.035156 C 12.746094 -14.734375 13.285156 -15.488281 13.660156 -16.242188 C 14.089844 -17.046875 14.628906 -17.746094 15.328125 -18.394531 C 15.757812 -18.714844 16.082031 -19.144531 16.347656 -19.523438 L 20.8125 -25.921875 C 22.964844 -26.351562 19.578125 -20.277344 19.144531 -17.746094 C 18.824219 -16.566406 18.5 -15.382812 18.125 -14.253906 L 18.230469 -14.253906 C 18.5 -15.003906 18.769531 -15.8125 18.984375 -16.566406 C 19.09375 -16.566406 19.144531 -16.566406 19.199219 -16.617188 C 18.824219 -15.8125 19.09375 -15.21875 18.660156 -14.414062 C 18.230469 -13.660156 18.394531 -12.90625 17.746094 -12.207031 C 17.855469 -11.992188 18.070312 -11.886719 18.015625 -11.722656 C 17.960938 -11.347656 17.855469 -10.917969 17.695312 -10.542969 C 17.425781 -9.949219 17.425781 -9.410156 17.585938 -9.089844 C 17.910156 -8.550781 17.15625 -6.9375 17.046875 -6.238281 C 16.996094 -5.96875 16.941406 -5.699219 16.941406 -5.484375 C 17.101562 -4.519531 17.265625 -3.496094 17.480469 -2.582031 C 17.855469 -0.753906 19.84375 -0.644531 21.621094 -1.289062 C 22.425781 -1.613281 23.234375 -2.042969 24.039062 -2.472656 C 24.46875 -2.6875 24.847656 -3.011719 25.167969 -3.441406 C 25.601562 -4.085938 26.03125 -4.625 26.460938 -5.214844 C 26.78125 -5.699219 27.105469 -6.183594 27.375 -6.667969 C 27.429688 -6.777344 27.480469 -6.992188 27.375 -7.046875 C 27.160156 -7.3125 27.105469 -7.691406 27.105469 -8.175781 C 26.03125 -7.3125 25.4375 -6.183594 24.203125 -5.433594 L 23.878906 -6.183594 C 23.878906 -6.292969 23.824219 -6.398438 23.769531 -6.507812 C 23.503906 -6.882812 24.039062 -8.28125 24.253906 -8.925781 C 24.46875 -9.519531 24.46875 -10.058594 24.308594 -10.59375 C 24.253906 -10.757812 24.308594 -10.972656 24.363281 -11.1875 C 24.46875 -11.671875 24.683594 -12.101562 24.738281 -12.585938 C 24.953125 -13.445312 25.117188 -14.359375 25.4375 -15.273438 C 25.601562 -15.703125 25.492188 -16.132812 25.707031 -16.566406 C 26.082031 -17.210938 26.246094 -17.855469 26.460938 -18.445312 C 26.945312 -19.953125 29.09375 -23.71875 29.578125 -25.167969 C 30.0625 -26.835938 30.332031 -28.449219 30.117188 -29.902344 C 29.957031 -30.710938 29.472656 -31.191406 28.613281 -31.355469 C 27.535156 -31.515625 26.300781 -31.191406 25.117188 -31.03125 C 24.902344 -30.976562 24.578125 -30.871094 24.363281 -30.871094 C 23.933594 -30.925781 23.503906 -30.710938 23.125 -30.386719 L 22.535156 -29.957031 C 20.382812 -28.613281 17.101562 -24.578125 15.648438 -22.695312 C 14.46875 -21.136719 13.445312 -19.523438 12.371094 -17.960938 C 9.574219 -14.734375 10.542969 -16.832031 11.507812 -21.082031 C 11.722656 -22.050781 11.722656 -22.964844 12.316406 -23.988281 C 12.476562 -24.203125 12.421875 -24.46875 12.371094 -24.632812 C 12.207031 -25.167969 12.046875 -25.707031 11.777344 -26.136719 C 11.1875 -27.320312 9.84375 -27.695312 8.390625 -27.804688 C 7.53125 -27.859375 6.5625 -27.589844 5.753906 -27.75 C 5.269531 -27.804688 5.054688 -27.644531 4.839844 -27.105469 C 4.519531 -26.300781 4.195312 -25.492188 3.925781 -24.683594 Z M 1.289062 -17.425781 "/></g></g></g><g fill="#000000" fill-opacity="1"><g transform="translate(214.761915, 281.723485)"><g><path d="M 20.867188 -26.835938 C 21.457031 -27.265625 22.15625 -27.160156 22.804688 -27.265625 C 23.289062 -27.320312 23.769531 -27.320312 24.203125 -27.480469 C 25.007812 -27.75 25.707031 -27.75 26.460938 -27.695312 C 26.460938 -27.695312 26.515625 -27.644531 26.515625 -27.589844 C 26.40625 -27.589844 26.246094 -27.535156 26.136719 -27.535156 C 26.136719 -27.265625 26.082031 -27 26.40625 -27 C 26.300781 -27.160156 26.300781 -27.320312 26.566406 -27.375 L 27.589844 -27.535156 L 26.40625 -27 C 27 -26.890625 27.480469 -27.160156 27.964844 -27.535156 C 28.179688 -27.695312 28.449219 -27.859375 28.828125 -27.804688 C 29.363281 -27.695312 29.472656 -27.804688 29.578125 -28.394531 L 29.09375 -28.394531 L 30.171875 -29.042969 C 30.0625 -29.363281 30.011719 -29.417969 30.226562 -29.742188 C 30.441406 -30.117188 30.492188 -30.492188 30.277344 -30.816406 C 30.117188 -31.03125 30.0625 -31.40625 29.6875 -31.460938 C 29.578125 -31.460938 29.527344 -31.570312 29.472656 -31.675781 L 29.148438 -32.054688 C 29.042969 -32.160156 28.34375 -31.945312 28.289062 -31.785156 C 28.394531 -31.675781 28.449219 -31.570312 28.503906 -31.460938 C 28.234375 -31.085938 27.914062 -30.976562 27.535156 -30.976562 C 26.621094 -30.976562 25.761719 -30.925781 24.847656 -30.871094 C 24.148438 -30.816406 23.449219 -30.816406 22.75 -30.816406 C 22.535156 -30.816406 22.320312 -30.925781 22.105469 -30.976562 C 21.726562 -30.925781 21.296875 -30.761719 21.027344 -30.761719 C 20.113281 -30.710938 19.144531 -30.546875 18.285156 -30.761719 C 17.910156 -30.871094 17.425781 -30.761719 16.996094 -30.761719 L 11.617188 -30.492188 C 11.507812 -30.492188 11.292969 -30.546875 11.242188 -30.601562 C 11.1875 -30.710938 11.292969 -30.871094 11.347656 -31.085938 C 10.972656 -30.871094 10.863281 -31.085938 10.703125 -31.191406 C 10.488281 -31.355469 10.21875 -31.460938 9.894531 -31.246094 L 9.894531 -30.871094 C 9.894531 -30.332031 9.789062 -30.226562 9.195312 -30.226562 C 8.496094 -30.226562 7.851562 -30.277344 7.207031 -30.332031 C 6.9375 -30.332031 6.613281 -30.441406 6.183594 -30.546875 C 6.453125 -30.65625 6.5625 -30.761719 6.667969 -30.761719 L 8.28125 -30.871094 C 8.550781 -30.871094 8.875 -30.871094 9.144531 -30.925781 C 9.195312 -31.085938 9.195312 -31.191406 9.195312 -31.246094 L 5.753906 -31.460938 C 5.214844 -31.460938 4.839844 -31.570312 4.570312 -31.945312 C 4.570312 -32 4.519531 -32 4.464844 -32 C 4.195312 -31.945312 3.925781 -31.839844 3.925781 -31.515625 C 3.820312 -30.710938 3.441406 -29.847656 3.710938 -29.09375 C 3.765625 -28.988281 3.765625 -28.878906 3.710938 -28.828125 C 3.601562 -28.394531 3.820312 -28.074219 3.980469 -27.804688 L 4.25 -27.265625 C 4.410156 -26.945312 4.570312 -26.621094 4.785156 -26.351562 C 4.949219 -26.136719 5.164062 -25.816406 5.433594 -25.761719 C 8.445312 -24.738281 6.992188 -23.554688 5.433594 -19.84375 C 5.378906 -19.683594 5.269531 -19.523438 5.109375 -19.359375 C 4.785156 -18.878906 4.464844 -18.878906 4.140625 -19.253906 C 3.550781 -19.144531 3.011719 -19.09375 2.421875 -19.039062 C 1.558594 -18.929688 1.507812 -18.929688 1.238281 -19.628906 C 1.183594 -19.84375 1.023438 -20.007812 0.914062 -20.222656 L 0.644531 -20.007812 C 0.589844 -19.84375 0.484375 -19.683594 0.375 -19.523438 C -0.0546875 -18.609375 -0.160156 -18.609375 -0.808594 -19.199219 L -0.914062 -19.199219 C -0.96875 -19.09375 -1.128906 -18.929688 -1.183594 -18.769531 C -1.398438 -17.960938 -1.453125 -17.15625 -1.183594 -16.402344 C -1.128906 -16.1875 -1.023438 -16.027344 -1.183594 -15.757812 C -1.238281 -15.597656 -1.238281 -15.382812 -1.023438 -15.382812 C -0.753906 -15.328125 -0.699219 -15.167969 -0.589844 -15.003906 C -0.539062 -14.84375 -0.269531 -14.84375 -0.160156 -14.734375 C -0.0546875 -14.683594 -0.0546875 -14.574219 -0.0546875 -14.519531 C 0.109375 -14.035156 0.214844 -13.554688 0.324219 -13.070312 C 0.484375 -11.722656 -0.429688 -7.261719 -0.644531 -5.863281 C -0.699219 -5.433594 -0.808594 -5.054688 -0.914062 -4.679688 C -0.96875 -4.410156 -1.128906 -4.195312 -1.183594 -3.925781 L -1.667969 -1.613281 C -1.773438 -1.238281 -1.828125 -0.914062 -1.988281 -0.589844 C -2.367188 0.160156 -2.257812 0.808594 -1.667969 1.238281 C -1.453125 1.398438 -1.128906 1.507812 -0.859375 1.613281 L 0.160156 2.042969 L 1.128906 2.421875 C 1.613281 2.472656 1.988281 2.527344 2.527344 2.367188 C 3.066406 2.203125 3.601562 2.097656 4.195312 1.988281 C 4.25 1.828125 4.300781 1.667969 4.300781 1.507812 C 4.519531 0.484375 4.734375 -0.539062 5 -1.558594 C 5.109375 -2.097656 5.324219 -2.6875 5.539062 -3.226562 C 6.238281 -4.785156 7.851562 -9.464844 8.550781 -11.023438 C 10.378906 -15.433594 9.519531 -14.898438 13.875 -16.511719 L 15.757812 -17.15625 L 16.1875 -17.265625 C 16.886719 -17.425781 17.640625 -17.480469 18.285156 -17.746094 C 19.308594 -18.125 20.277344 -18.394531 21.296875 -18.609375 C 21.511719 -18.714844 21.726562 -18.714844 21.890625 -18.984375 C 22.050781 -19.199219 22.320312 -19.359375 22.535156 -19.523438 C 23.070312 -19.84375 23.769531 -20.058594 23.933594 -20.757812 C 23.933594 -20.8125 23.988281 -20.867188 24.039062 -20.921875 C 24.308594 -21.027344 24.253906 -21.242188 24.253906 -21.457031 C 23.234375 -21.78125 20.382812 -21.890625 19.144531 -21.511719 L 21.621094 -21.511719 C 20.277344 -21.296875 18.984375 -21.40625 17.640625 -21.136719 C 17.53125 -21.136719 17.480469 -21.242188 17.265625 -21.296875 L 18.5 -21.457031 C 17.480469 -21.457031 16.402344 -21.296875 15.382812 -21.136719 C 12.371094 -20.707031 11.886719 -21.78125 12.476562 -23.070312 C 13.875 -26.082031 12.585938 -25.601562 17.210938 -26.136719 C 17.695312 -26.191406 18.230469 -26.246094 18.769531 -26.246094 C 18.824219 -26.246094 18.929688 -26.191406 19.039062 -26.246094 C 19.84375 -26.351562 20.707031 -26.351562 21.566406 -26.835938 Z M 19.414062 -26.515625 L 19.414062 -26.621094 L 19.683594 -26.730469 C 19.683594 -26.675781 19.738281 -26.675781 19.738281 -26.621094 Z M 20.8125 -26.835938 C 20.707031 -26.675781 20.542969 -26.566406 20.328125 -26.730469 C 20.4375 -26.730469 20.597656 -26.78125 20.8125 -26.835938 Z M 20.8125 -26.835938 "/></g></g></g><g fill="#000000" fill-opacity="1"><g transform="translate(239.447441, 281.723485)"><g><path d="M -0.644531 -9.574219 C -0.589844 -9.410156 -0.644531 -9.25 -0.589844 -9.089844 C -0.589844 -7.207031 -0.324219 -5.324219 0.429688 -3.710938 C 1.289062 -1.722656 2.582031 -0.269531 4.410156 0.914062 C 5.109375 1.398438 5.96875 1.722656 6.882812 1.773438 C 7.261719 1.773438 7.636719 1.882812 8.011719 1.9375 C 8.496094 2.097656 9.035156 2.097656 9.625 1.773438 C 9.949219 1.667969 10.273438 1.613281 10.59375 1.453125 C 11.992188 1.128906 13.175781 0.375 14.089844 -0.539062 C 15.113281 -1.507812 15.917969 -2.421875 16.832031 -3.335938 C 16.996094 -3.601562 17.316406 -3.925781 17.371094 -4.195312 C 18.015625 -5.269531 18.824219 -6.292969 19.09375 -7.476562 C 19.414062 -8.390625 19.898438 -9.25 20.058594 -10.164062 C 20.4375 -11.5625 20.976562 -13.015625 21.082031 -14.46875 C 21.136719 -15.648438 21.566406 -16.886719 21.726562 -18.125 C 21.726562 -18.714844 21.78125 -19.308594 21.78125 -19.898438 C 21.890625 -20.058594 21.835938 -20.382812 21.941406 -20.542969 C 22.425781 -21.511719 22.75 -22.695312 22.855469 -23.824219 C 22.910156 -25.277344 22.855469 -26.730469 22.425781 -28.019531 C 22.050781 -29.363281 21.671875 -30.65625 20.921875 -31.625 C 20.277344 -32.429688 19.628906 -33.074219 18.929688 -33.773438 C 18.5 -34.203125 17.800781 -34.417969 16.996094 -34.472656 C 15.21875 -34.417969 13.335938 -34.097656 11.722656 -32.859375 C 11.132812 -32.375 10.59375 -32 10.003906 -31.570312 C 9.84375 -31.300781 9.574219 -31.140625 9.195312 -31.300781 C 8.550781 -31.355469 7.90625 -31.300781 7.3125 -30.710938 C 6.5625 -29.847656 5.863281 -28.933594 5.433594 -27.964844 L 4.140625 -25.382812 C 3.820312 -24.953125 3.550781 -24.253906 3.335938 -23.71875 L 0.589844 -16.617188 C -0.269531 -14.253906 -0.859375 -11.9375 -0.644531 -9.574219 Z M 4.464844 -15.867188 C 5.539062 -15.648438 6.398438 -15.597656 7.152344 -15.167969 C 7.476562 -14.949219 7.90625 -15.058594 8.335938 -15.058594 C 8.605469 -15.058594 8.925781 -15.21875 8.925781 -15.542969 C 9.410156 -16.78125 10.003906 -17.910156 10.542969 -19.199219 C 10.542969 -19.359375 10.59375 -19.46875 10.757812 -19.578125 C 11.078125 -20.277344 11.347656 -20.921875 11.5625 -21.621094 C 11.832031 -22.371094 12.316406 -22.910156 12.691406 -23.554688 C 13.285156 -24.46875 13.769531 -25.382812 14.359375 -26.300781 C 14.574219 -26.621094 14.84375 -26.835938 15.058594 -26.890625 C 15.433594 -27.160156 15.8125 -27.214844 16.132812 -27.375 C 16.886719 -27.589844 17.480469 -27.375 17.910156 -26.890625 C 18.5 -26.300781 18.714844 -25.652344 18.660156 -24.792969 C 18.554688 -22.75 18.285156 -20.492188 17.960938 -18.5 C 17.371094 -15.328125 16.347656 -12.261719 14.84375 -9.464844 C 13.5 -6.9375 11.617188 -4.839844 9.574219 -3.011719 C 8.980469 -2.472656 8.226562 -2.203125 7.53125 -1.882812 C 7.207031 -1.667969 6.777344 -1.773438 6.453125 -1.988281 C 5.648438 -2.527344 5.378906 -3.28125 5.214844 -4.25 C 5 -5.648438 4.679688 -7.046875 4.300781 -8.550781 C 4.25 -9.410156 3.980469 -10.21875 3.820312 -11.132812 C 3.820312 -11.722656 3.980469 -12.261719 4.035156 -12.90625 C 4.085938 -13.5 4.140625 -14.199219 4.355469 -14.898438 C 4.355469 -15.167969 4.355469 -15.488281 4.464844 -15.867188 Z M 4.464844 -15.867188 "/></g></g></g></svg>